PathFileType	4	(X/Y/Z)	./resultDataOpenSim/trcMotMarkerGrf/sub09/qtm-03-07.trc
DataRate	CameraRate	NumFrames	NumMarkers	Units	OrigDataRate	OrigDataStartFrame	OrigNumFrames
250.000000	250.000000	13	24	m	250.000000	307	491
Frame#	Time	L.Toe.Tip			R.Toe.Tip			L.Ankle.Lat			R.Ankle.Lat			L.Ankle.Med			R.Ankle.Med			L.Heel			R.Heel			L.Knee.Lat			R.Knee.Lat			L.Knee.Med			R.Knee.Med			L.Thigh.Upper			R.Thigh.Upper			L.ASIS			R.ASIS			V.Sacral			L.Acromium			R.Acromium			C7			L.Elbow			R.Elbow			L.Wrist.Lat			R.Wrist.Lat
		X1	Y1	Z1	X2	Y2	Z2	X3	Y3	Z3	X4	Y4	Z4	X5	Y5	Z5	X6	Y6	Z6	X7	Y7	Z7	X8	Y8	Z8	X9	Y9	Z9	X10	Y10	Z10	X11	Y11	Z11	X12	Y12	Z12	X13	Y13	Z13	X14	Y14	Z14	X15	Y15	Z15	X16	Y16	Z16	X17	Y17	Z17	X18	Y18	Z18	X19	Y19	Z19	X20	Y20	Z20	X21	Y21	Z21	X22	Y22	Z22	X23	Y23	Z23	X24	Y24	Z24

307	1.224	0.14359544	-0.0071148443	-0.0095800432	1.0125018	0.052768938	0.082195814	0.062932528	0.11986547	-0.074955125	0.86582524	0.054265216	0.12244932	0.091944779	0.12231636	0.018524613	0.86762935	0.094973915	0.030902053	-0.0085052064	0.13941215	-0.031497257	0.79900154	0.028388948	0.074579194	0.34310276	0.43677475	-0.10969805	0.80518386	0.51159916	0.17284689	0.35113799	0.42687741	0.014962536	0.78685391	0.4911051	0.049236983	0.49481488	0.81996633	-0.13139467	0.56972191	0.83357679	0.23502011	0.60702505	0.8902387	-0.09109609	0.63394541	0.91354957	0.14765174	0.45625255	0.96149681	0.043175616	0.62265705	1.3654169	-0.11411104	0.58628583	1.3600157	0.21353997	0.53551445	1.408681	0.044087883	0.56919353	0.98860703	-0.18681875	0.41544746	1.0469383	0.28400584	0.83509572	0.93281764	-0.14036179	0.48727222	0.79405801	0.35718841
308	1.228	0.14477567	-0.0062092468	-0.0098372776	1.0139846	0.04976428	0.08120206	0.067395212	0.12328138	-0.075495305	0.8671452	0.053759787	0.12242233	0.097260657	0.12493482	0.017657508	0.8690883	0.094533345	0.030994949	-0.0029690087	0.14448312	-0.031379794	0.79974068	0.029024586	0.074844872	0.35236177	0.43625531	-0.11039032	0.81176883	0.51155854	0.17339768	0.36013998	0.42531013	0.014656549	0.79292972	0.49227678	0.049808262	0.5022741	0.8197818	-0.13079341	0.57643177	0.83518255	0.23589396	0.61448206	0.89039396	-0.090345486	0.64111965	0.91455249	0.14831989	0.46347357	0.96192301	0.043638782	0.62996329	1.3658978	-0.1136742	0.59335768	1.3605826	0.21398834	0.54255529	1.4090807	0.04447317	0.57477749	0.9892544	-0.18615428	0.42298374	1.0472342	0.28425046	0.84026968	0.93160199	-0.13996769	0.49529337	0.79452756	0.35778685
309	1.232	0.14613182	-0.0051342612	-0.010128235	1.0154411	0.047353065	0.08043146	0.072111292	0.12685972	-0.07589508	0.86842091	0.053379504	0.12233288	0.10281148	0.12767397	0.016937871	0.87053983	0.094159356	0.030950271	0.0028739695	0.1497367	-0.03113079	0.80047605	0.029591895	0.075036953	0.36198275	0.43562904	-0.11119156	0.81794463	0.51122592	0.17403417	0.36970317	0.42354507	0.014293104	0.7988383	0.49316936	0.050427326	0.50968884	0.81961556	-0.1301248	0.58300565	0.83666121	0.23675646	0.62166326	0.8905669	-0.089407773	0.64823927	0.91559528	0.1490187	0.47075479	0.96235739	0.044392125	0.63727725	1.366399	-0.1132135	0.60041553	1.3611937	0.21442058	0.54959343	1.4094946	0.044848644	0.58051573	0.98998689	-0.18523323	0.43051796	1.047542	0.28448637	0.84533217	0.93030136	-0.13958862	0.50332161	0.79506596	0.35833314
310	1.236	0.14763951	-0.0038841123	-0.010453994	1.0166148	0.045634419	0.079909599	0.077100449	0.13061734	-0.076169053	0.86936638	0.053135448	0.12223714	0.1085651	0.13056194	0.016377928	0.87181154	0.093840243	0.030787049	0.0090286	0.1551821	-0.030800506	0.80110433	0.03001322	0.075116164	0.37183576	0.43493227	-0.11209279	0.82375227	0.51068479	0.1747292	0.37995078	0.42166164	0.013780978	0.80461305	0.49374749	0.051061249	0.51705858	0.81947674	-0.12937743	0.58946885	0.83799631	0.23759848	0.62861788	0.89078906	-0.088336095	0.65527659	0.91667685	0.14974637	0.47810453	0.96282207	0.045546542	0.64458885	1.3669277	-0.11273389	0.6074694	1.3618529	0.21483833	0.55659355	1.4099803	0.045228384	0.58621647	0.99081131	-0.18439443	0.4380456	1.0478615	0.28471877	0.85028482	0.92892359	-0.13922463	0.51136944	0.79565577	0.35883325
311	1.24	0.14930542	-0.0024528223	-0.010796536	1.0173884	0.044510801	0.079649263	0.082389233	0.13454553	-0.076314556	0.86988474	0.052992202	0.12215192	0.11451413	0.13359894	0.015983322	0.87279842	0.093569653	0.030577805	0.015506743	0.16080138	-0.030424452	0.80156788	0.030273178	0.075103388	0.38185283	0.43420317	-0.11304968	0.82926115	0.51003333	0.17543257	0.3908882	0.41977062	0.012962872	0.81030492	0.49400679	0.051667303	0.52438055	0.81936462	-0.12854912	0.59585349	0.8391892	0.23842098	0.63556113	0.89110189	-0.087324888	0.66221409	0.91778792	0.15051117	0.48546291	0.96334876	0.0470922	0.65188198	1.3674878	-0.11223782	0.61453922	1.3625603	0.2152477	0.56356944	1.4105642	0.045610045	0.59177726	0.99172035	-0.18379135	0.44556892	1.0482053	0.28495879	0.8551431	0.92749181	-0.1388657	0.51947924	0.79627463	0.35931741
312	1.244	0.15115752	-0.00084040008	-0.011129947	1.0178349	0.043772658	0.079565945	0.088008647	0.13861782	-0.076330625	0.87014965	0.052862208	0.12202775	0.12067692	0.13676527	0.015751772	0.87349985	0.09334846	0.030386777	0.022320736	0.16656119	-0.030012099	0.80187398	0.030414235	0.07507174	0.39200041	0.43345737	-0.11397654	0.83454575	0.50938102	0.17609695	0.40236787	0.41797178	0.011748282	0.81597422	0.49400074	0.052199367	0.53164865	0.81927291	-0.12765467	0.60220511	0.84025558	0.23923543	0.64264973	0.89151052	-0.086527126	0.66903235	0.91890518	0.15131613	0.49265244	0.96396118	0.048742093	0.65913492	1.3680773	-0.11172736	0.62163866	1.363308	0.21565187	0.5705455	1.4112435	0.045986418	0.59720991	0.99271309	-0.18339417	0.45309329	1.0485853	0.28521499	0.85991644	0.92602717	-0.13850478	0.52767067	0.79690693	0.35980481
313	1.248	0.15322337	0.00095362024	-0.011433398	1.0181261	0.043228938	0.079483986	0.093981986	0.14280161	-0.076222496	0.87041855	0.052663768	0.12182929	0.12708253	0.14004366	0.015672444	0.87398877	0.093173547	0.030229871	0.029473554	0.17243219	-0.029557795	0.80207694	0.030493092	0.075072198	0.40230331	0.43268976	-0.114818	0.8396788	0.50881181	0.17669968	0.41399191	0.41629637	0.010298374	0.82166826	0.49383628	0.052623821	0.53885797	0.81919985	-0.12673726	0.60858518	0.84122836	0.24006934	0.64984853	0.89198012	-0.085904661	0.67571916	0.92000547	0.1521547	0.49941293	0.96467443	0.050037306	0.6663287	1.3686929	-0.1112063	0.62876407	1.3640882	0.21604823	0.57751005	1.4120106	0.046361529	0.60257209	0.99379023	-0.18311312	0.46062395	1.0490035	0.28549147	0.86460676	0.92454249	-0.13814952	0.53592135	0.79754738	0.36028415
314	1.252	0.15551632	0.0029325201	-0.011702766	1.0184034	0.042762463	0.079248578	0.10030822	0.14705957	-0.075984487	0.87081672	0.052385272	0.12160785	0.1337537	0.14342699	0.015731035	0.87436174	0.093030626	0.030088527	0.036960453	0.17839863	-0.029056501	0.80223305	0.030547342	0.07509677	0.41284172	0.43188387	-0.11557979	0.84472025	0.50835846	0.17724178	0.42538084	0.41471292	0.0089289487	0.82739915	0.49363491	0.052934544	0.54600525	0.81914468	-0.1258642	0.61504773	0.84215308	0.24095513	0.65700343	0.89246316	-0.085221027	0.68228058	0.92108167	0.15301942	0.50554696	0.96551934	0.050685361	0.67345213	1.3693349	-0.11067734	0.63589886	1.3649031	0.21643271	0.58443815	1.4128564	0.046745733	0.60791497	0.99494552	-0.18287714	0.46816332	1.0494612	0.28579721	0.86921599	0.92304465	-0.13782168	0.5442004	0.79820231	0.36073387
315	1.256	0.15803455	0.0050953731	-0.011949464	1.0187112	0.042325299	0.078832613	0.10695336	0.15135434	-0.075611318	0.87132645	0.05208502	0.12144854	0.14070201	0.14690696	0.015916663	0.87469705	0.092901371	0.029948023	0.044779733	0.18445256	-0.028503978	0.80236532	0.030592429	0.075114627	0.42364998	0.43101598	-0.11625708	0.84970743	0.50802177	0.1777372	0.436557	0.4131832	0.0078407972	0.83312748	0.49349158	0.053153852	0.55308831	0.81909856	-0.12509746	0.62158733	0.84306485	0.24189396	0.66405376	0.89293889	-0.084174905	0.68873615	0.92214361	0.15390853	0.5111759	0.9665228	0.050796342	0.68049669	1.3700082	-0.11014337	0.64302186	1.3657639	0.21680357	0.59132265	1.4137705	0.047143018	0.61327744	0.99617055	-0.18262573	0.475698	1.0499711	0.28615646	0.87374901	0.92153373	-0.13753896	0.55249356	0.79888535	0.36114015
316	1.26	0.16076432	0.0074331256	-0.01218666	1.0190129	0.041924987	0.078341798	0.11387964	0.15566641	-0.075133049	0.87187676	0.05184162	0.12138341	0.14793401	0.15046413	0.016220678	0.87502416	0.092782241	0.029821827	0.052936616	0.19058399	-0.027888236	0.80246258	0.030631606	0.075117151	0.43468295	0.43006808	-0.11681375	0.85465338	0.50780488	0.17820521	0.44781435	0.41170588	0.0070339242	0.83876132	0.49345859	0.053319808	0.56010844	0.81905416	-0.12445684	0.62812059	0.84396811	0.2428348	0.67109509	0.89344306	-0.082592439	0.69511009	0.92320689	0.15482445	0.51681226	0.9676516	0.050770452	0.68745584	1.3707177	-0.1096169	0.65011363	1.3666804	0.21716175	0.59817333	1.414739	0.04754704	0.61868756	0.99746078	-0.18229514	0.48316618	1.0505507	0.28660089	0.87821229	0.92000018	-0.13729328	0.56079631	0.79960468	0.36149224
317	1.264	0.16368154	0.0099321429	-0.012422322	1.0192419	0.041600219	0.077927209	0.12111358	0.16000625	-0.074612152	0.87237695	0.051700561	0.12139809	0.15545504	0.15407184	0.016634968	0.87531542	0.092694867	0.029747966	0.061438013	0.19678057	-0.027192431	0.80250355	0.030662497	0.075124152	0.44590052	0.42905017	-0.11724949	0.85954536	0.50772035	0.17865933	0.45932562	0.4103165	0.0064216954	0.84418644	0.49354838	0.053472017	0.56706821	0.81903152	-0.12389638	0.6345567	0.84485136	0.24371114	0.67815916	0.89407096	-0.080664208	0.70142276	0.92428337	0.15576498	0.52294082	0.96881991	0.050941482	0.6943347	1.3714619	-0.10912832	0.65716582	1.3676533	0.21750925	0.6049848	1.4157498	0.047952364	0.62413556	0.99881184	-0.1818664	0.49045636	1.0511969	0.28713903	0.88261347	0.91843559	-0.1370729	0.5691033	0.8003537	0.3617801
318	1.268	0.1667588	0.012580766	-0.012660626	1.0193519	0.041375989	0.077682531	0.12876139	0.1644026	-0.074112073	0.87272353	0.051655969	0.12147818	0.16326204	0.15770702	0.017154583	0.87551161	0.092672238	0.029765765	0.070289384	0.20303226	-0.02640737	0.80247893	0.030680798	0.075164334	0.45732202	0.42800894	-0.1176211	0.86434754	0.50776661	0.17909837	0.47101639	0.40907623	0.0059551181	0.84931271	0.49374213	0.053642144	0.5739647	0.81908489	-0.12330393	0.64087608	0.84571987	0.24449367	0.68506508	0.89491626	-0.078953643	0.70768202	0.92538012	0.15671469	0.52956752	0.96995656	0.051363626	0.70114802	1.3722358	-0.10871754	0.66418528	1.3686755	0.21784749	0.61172289	1.4168078	0.048362869	0.62956071	1.0002092	-0.18140506	0.49752607	1.05188	0.28774009	0.88695738	0.91684733	-0.13690978	0.57740813	0.80111891	0.36199956
319	1.272	0.16997863	0.015379412	-0.012900969	1.0193463	0.041235402	0.077594671	0.13689627	0.16887223	-0.073671887	0.87284147	0.0516761	0.12160837	0.17133378	0.16135718	0.017773227	0.87556736	0.092733592	0.029890611	0.079495188	0.20933241	-0.02553541	0.80239586	0.030683174	0.075256209	0.46897488	0.42700588	-0.11798275	0.86901767	0.50790883	0.1795129	0.48271015	0.40805777	0.0056461983	0.85409498	0.494006	0.053848379	0.5807906	0.81926657	-0.12255442	0.64711807	0.84660607	0.24519326	0.69160777	0.89594713	-0.077898404	0.71388546	0.92650395	0.1576493	0.53632854	0.9710326	0.051924989	0.70789102	1.3730415	-0.10839984	0.67118301	1.369742	0.21817906	0.61837178	1.4179159	0.048773725	0.63490429	1.0016305	-0.18099263	0.50454255	1.0525715	0.28837241	0.89123854	0.91525073	-0.13684759	0.58570343	0.80189538	0.36214837
